{
  "accessors": [
    {
      "bufferView": 1,
      "componentType": 5126,
      "count": 240,
      "max": [
        1.1525260210037231,
        1.6552690267562866,
        1.6222360134124756
      ],
      "min": [
        1.0097450017929077,
        0.48165804147720337,
        0.52009004354476929
      ],
      "type": "VEC3"
    },
    {
      "bufferView": 1,
      "byteOffset": 2880,
      "componentType": 5126,
      "count": 240,
      "max": [
        0.71335798501968384,
        0.6665496826171875,
        0.56703108549118042
      ],
      "min": [
        -0.71333533525466919,
        -0.66655099391937256,
        -0.7008240818977356
      ],
      "type": "VEC3"
    },
    {
      "bufferView": 0,
      "componentType": 5125,
      "count": 240,
      "max": [
        239
      ],
      "min": [
        0
      ],
      "type": "SCALAR"
    },
    {
      "bufferView": 1,
      "byteOffset": 5760,
      "componentType": 5126,
      "count": 1677,
      "max": [
        2.1305921077728271,
        2.1305921077728271,
        2.1614181995391846
      ],
      "min": [
        0,
        0,
        0
      ],
      "type": "VEC3"
    },
    {
      "bufferView": 1,
      "byteOffset": 25884,
      "componentType": 5126,
      "count": 1677,
      "max": [
        1,
        1,
        1
      ],
      "min": [
        -1,
        -1,
        -1
      ],
      "type": "VEC3"
    },
    {
      "bufferView": 2,
      "componentType": 5126,
      "count": 1677,
      "max": [
        1,
        1,
        0.059601422399282455,
        -1
      ],
      "min": [
        -1,
        -1,
        -0.059601414948701859,
        -1
      ],
      "type": "VEC4"
    },
    {
      "bufferView": 0,
      "byteOffset": 960,
      "componentType": 5125,
      "count": 9360,
      "max": [
        1676
      ],
      "min": [
        0
      ],
      "type": "SCALAR"
    },
    {
      "bufferView": 1,
      "byteOffset": 46008,
      "componentType": 5126,
      "count": 1677,
      "max": [
        2.1119332313537598,
        2.1119341850280762,
        2.1424920558929443
      ],
      "min": [
        0.018658995628356934,
        0.018658995628356934,
        0.018924999982118607
      ],
      "type": "VEC3"
    },
    {
      "bufferView": 1,
      "byteOffset": 66132,
      "componentType": 5126,
      "count": 1677,
      "max": [
        1,
        1,
        1
      ],
      "min": [
        -1,
        -1,
        -1
      ],
      "type": "VEC3"
    },
    {
      "bufferView": 2,
      "byteOffset": 26832,
      "componentType": 5126,
      "count": 1677,
      "max": [
        1,
        1,
        0.059578035026788712,
        1
      ],
      "min": [
        -1,
        -1,
        -0.059575647115707397,
        1
      ],
      "type": "VEC4"
    },
    {
      "bufferView": 0,
      "byteOffset": 38400,
      "componentType": 5125,
      "count": 9360,
      "max": [
        1676
      ],
      "min": [
        0
      ],
      "type": "SCALAR"
    },
    {
      "bufferView": 1,
      "byteOffset": 86256,
      "componentType": 5126,
      "count": 1677,
      "max": [
        2.0500199794769287,
        2.0500199794769287,
        2.0796830654144287
      ],
      "min": [
        0.080572068691253662,
        0.080572068691253662,
        0.081734001636505127
      ],
      "type": "VEC3"
    },
    {
      "bufferView": 1,
      "byteOffset": 106380,
      "componentType": 5126,
      "count": 1677,
      "max": [
        1,
        1,
        1
      ],
      "min": [
        -1,
        -1,
        -1
      ],
      "type": "VEC3"
    },
    {
      "bufferView": 2,
      "byteOffset": 53664,
      "componentType": 5126,
      "count": 1677,
      "max": [
        1,
        1,
        0.059574421495199203,
        1
      ],
      "min": [
        -1,
        -1,
        -0.05957384780049324,
        1
      ],
      "type": "VEC4"
    },
    {
      "bufferView": 0,
      "byteOffset": 75840,
      "componentType": 5125,
      "count": 9360,
      "max": [
        1676
      ],
      "min": [
        0
      ],
      "type": "SCALAR"
    }
  ],
  "asset": {
    "extras": {
      "author": "Skuddbutt (https://sketchfab.com/skuddedbutt)",
      "license": "CC-BY-4.0 (http://creativecommons.org/licenses/by/4.0/)",
      "source": "https://sketchfab.com/models/21fe83487d084fecaba7ef5b62f71d55",
      "title": "Dragonball"
    },
    "generator": "Sketchfab-3.18.6",
    "version": "2.0"
  },
  "bufferViews": [
    {
      "buffer": 0,
      "byteLength": 113280,
      "byteOffset": 0,
      "name": "floatBufferViews",
      "target": 34963
    },
    {
      "buffer": 0,
      "byteLength": 126504,
      "byteOffset": 113280,
      "byteStride": 12,
      "name": "floatBufferViews",
      "target": 34962
    },
    {
      "buffer": 0,
      "byteLength": 80496,
      "byteOffset": 239784,
      "byteStride": 16,
      "name": "floatBufferViews",
      "target": 34962
    }
  ],
  "buffers": [
    {
      "byteLength": 320280,
      "uri": "scene.bin"
    }
  ],
  "extensionsRequired": [
    "KHR_materials_pbrSpecularGlossiness"
  ],
  "extensionsUsed": [
    "KHR_materials_pbrSpecularGlossiness"
  ],
  "materials": [
    {
      "doubleSided": true,
      "emissiveFactor": [
        0,
        0,
        0
      ],
      "extensions": {
        "KHR_materials_pbrSpecularGlossiness": {
          "diffuseFactor": [
            0.5612388103,
            0.043937757700000003,
            0.0079392391000000003,
            1
          ],
          "glossinessFactor": 1,
          "specularFactor": [
            0.81000000000000005,
            0,
            0
          ]
        }
      },
      "name": "blinn1SG"
    },
    {
      "alphaMode": "BLEND",
      "doubleSided": false,
      "emissiveFactor": [
        0,
        0,
        0
      ],
      "extensions": {
        "KHR_materials_pbrSpecularGlossiness": {
          "diffuseFactor": [
            0.97998638100000002,
            0.29447419029999999,
            0,
            0.78000000000000003
          ],
          "glossinessFactor": 1,
          "specularFactor": [
            0.19,
            0.150608452635,
            0
          ]
        }
      },
      "name": "lambert2SG"
    },
    {
      "alphaMode": "BLEND",
      "doubleSided": true,
      "emissiveFactor": [
        0,
        0,
        0
      ],
      "extensions": {
        "KHR_materials_pbrSpecularGlossiness": {
          "diffuseFactor": [
            1,
            0.36366537360000001,
            0,
            0.11
          ],
          "glossinessFactor": 0.77000000000000002,
          "specularFactor": [
            0.208388576942,
            0.010025824016000001,
            0.010025824016000001
          ]
        }
      },
      "name": "phongE1SG"
    },
    {
      "alphaMode": "BLEND",
      "doubleSided": true,
      "emissiveFactor": [
        0,
        0,
        0
      ],
      "extensions": {
        "KHR_materials_pbrSpecularGlossiness": {
          "diffuseFactor": [
            0.6912592434,
            0.0078455148999999995,
            0.0014547615999999999,
            0.69999999999999996
          ],
          "glossinessFactor": 0.90000000000000002,
          "specularFactor": [
            0.46999999999999997,
            0.045875601844999996,
            0
          ]
        }
      },
      "name": "phongE2SG"
    }
  ],
  "meshes": [
    {
      "primitives": [
        {
          "attributes": {
            "NORMAL": 1,
            "POSITION": 0
          },
          "indices": 2,
          "material": 0,
          "mode": 4
        }
      ]
    },
    {
      "primitives": [
        {
          "attributes": {
            "NORMAL": 4,
            "POSITION": 3,
            "TANGENT": 5
          },
          "indices": 6,
          "material": 1,
          "mode": 4
        }
      ]
    },
    {
      "primitives": [
        {
          "attributes": {
            "NORMAL": 8,
            "POSITION": 7,
            "TANGENT": 9
          },
          "indices": 10,
          "material": 2,
          "mode": 4
        }
      ]
    },
    {
      "primitives": [
        {
          "attributes": {
            "NORMAL": 12,
            "POSITION": 11,
            "TANGENT": 13
          },
          "indices": 14,
          "material": 3,
          "mode": 4
        }
      ]
    }
  ],
  "nodes": [
    {
      "children": [
        1
      ],
      "name": "RootNode (gltf orientation matrix)",
      "rotation": [
        -0.70710678118654746,
        -0,
        -0,
        0.70710678118654757
      ]
    },
    {
      "children": [
        2
      ],
      "name": "RootNode (model correction matrix)"
    },
    {
      "children": [
        3
      ],
      "matrix": [
        1,
        0,
        0,
        0,
        0,
        1,
        0,
        0,
        0,
        0,
        1,
        0,
        -1.0652960538864136,
        -1.0652960538864136,
        0.0055550001561641693,
        1
      ],
      "name": "dankenball.obj.cleaner.gles"
    },
    {
      "children": [
        4,
        5,
        6,
        7
      ],
      "name": ""
    },
    {
      "mesh": 0,
      "name": ""
    },
    {
      "mesh": 1,
      "name": ""
    },
    {
      "mesh": 2,
      "name": ""
    },
    {
      "mesh": 3,
      "name": ""
    }
  ],
  "scene": 0,
  "scenes": [
    {
      "name": "OSG_Scene",
      "nodes": [
        0
      ]
    }
  ]
}

